<svg xmlns="http://www.w3.org/2000/svg" width="476.67" height="69.33" viewBox="0 0 476.667 69.333"><path fill="#B8576D" d="M8.38 30.48c-2.93 0-4.8 1.13-4.58-2.57.04-.6-.14-3.1.6-3.6 1.25-.8 4.3 1.1 4.08-1.3-.42-4.5-1.58-12.4 1.8-16 3.64-3.9 9.02-3.9 13.95-3.9 0 2 0 3.9.04 5.9.03.9-4.47.6-5.2.8-3.38.9-2.28 6.3-2.12 8.8.3 4.8-1.1 6 3.95 6 .56 0 1.68 6.6-1.18 6.3-.73 0-3.03-.7-3.03.6v9.1c0 3.2 2 12.8-2.4 12.5-1.8-.1-6 .9-6-1.3V30.5c-.8 0 0 0 0 0zm22.46 19.04c0 .1-3.75.6-4.2.48-3.2-.92-2.14-4.8-2.14-7.25 0-7.22 7.8-5.84 12.1-8.64 2.2-1.4.52-10.7-3.15-7.2-.93.9-.3 3.4-.32 4.5 0 .5-6.66.8-7.8.5-1.36-.3-.7-6-.3-7 .94-2.2 3.92-3.5 6.14-3.9 4.8-.9 11.46-.6 13.7 4.6 2.3 5.4.62 13.3.5 18.9-.1 4.2-5.84 11.1-9.4 6.7-1.65.6-.45 2-3.05 1.7-1.65-.2-3.52-.5-4.8-1.7 1.05-.3 1.95-.8 2.72-1.6 0 .1-1.13 1.1 0 0 0-.6-.95.9 0 0zm3.02.9c1.66.45 4.83-2.25 1.87-2.22 0-2.67 2.5-1.44 3.77-1.44 0-1.3-1.47-.94-2.23-.94 0-1.3.9-4.03-.4-5-3.33-.6-4.4 2.36-3.86 5.15.4 1.82 3.2 1.22 1 2.75-1 .72-1.3 1.42-.1 1.7 1.9.5-.3-.06 0 0zm16.24 6.94c-.18-2.4 3.5-1.38 4.82-1.38 6.03 0 .96 1.6 4.03 4.17 3.08 2.56 3.83-2.95 3.4-4.75-.88-3.58 4.65-1.3 5.92-3.2-1.63-.66-3.7.58-5.34.63-.54.02-6.2-.1-3.72-.08.2.04-9.5-1.88-6.3-3-2 .25-4-2.35-2.4-4.02-1.4 1.06-1.5-3.78-1.5-4.4l-.1-13.7c0-8.53 10.5-9.57 16.6-6.53 5.3 2.64 4.9 10.8 4.8 15.92 0 2.07-.2 4.03-.1 6.16.1 1.8.1 3.63.1 5.42 0 1.53-1.2 1.47-1.2 2.14.3.4.7.5 1.2.34.6.66.7 1.47.3 2.42.1 2.2.5 4.46.1 6.65-.6 4.02-4.2 6.07-8 6.5-6.1.7-12.7-2.92-12.3-9.3-.1-2.33 0 .33 0 0zm3.77-16.97c-.52.1-.88.4-1.08.9.8 0 2.5-.2 2.5-1.4 1.2-.4-2.8.9-1.5.4-.3.1.1-.1 0 0zm3.56 10.2c.68 0 1.27-.3 1.78-.7-1-.5-4.3-1.1-5.1.2 1.1.3 2.2.4 3.4.4-.3 0-1.2 0 0 0 .5 0-1.3 0 0 0zm-.36-5.4c2.38.9 1.7 2.9 4.8 1 1.54-.9 5.15 1.3 6.4-.4-1.37-.6-2.5-1-3.93-.2.44-1.8-1.9-.9-2.7-.9.76-.6-.6-2.3.28-3.1.74-.6 1.83 0 2.42-1-6.86-1.5 2.48-2.3 2.1-4.7-.1-.6-4.42.8-4.8.9 0-2.3 1.36-12.8-3.07-11.5-2.22.6-1.17 5.5-1.17 7.3V38c0 .8-1.18.6-1.5 1.2 2.9.6 1.07 5.7 1.17 5.7.6.25-.02 0 0 0zm3.05 5.8c0 .3 7 .6 7.55-.3-1.9-.2-6.07.6-7.25-1.4-1.07 1.5-.86 1.1-.3 1.5 0 .4 0 0 0 0zm13.9-5.8l.3-1.8c.32.6 2.14.1 2.14-.6 0-1-2.16.3-2.14-.7l.16-8.9c.07-4.2-.9-9.4 3.27-11.8 6.56-3.9 17.57-1.2 17.43 7.4-.04 2.5-.03 5-.03 7.5 0 2.2-2.63 1.6-4.17 1.6-3.76 0-8.77-1.6-8.23 3.6.2 1.8-1.2 2.4.02 4.2.8 1.2 3.02.7 3.73.9.04 0 3.28-1.5 3.77-1.6 2.12-.2 2.42 1.2 4.58.5.35 10.3-21.64 8.4-20.8-.7.05-.6-.02.2 0 0zM84.52 26c-3.25.3-1.73 9.36 1.85 5.9 1.2-1.2 1.1-3.5.2-4.84-.6-.9-2.58-1-2.03-1.04-2 .2.16 0 0 0zm9.04 17.82c-.6 0-5.63.84-4.46-.9-.93-.08-1.64.3-2.12 1.1-3.05-3.4 4.07-3.44 5.12-3.5 2.24-.17 5.14 1.7 2.73 4.4-.52-1.1-.8-1.14-1.96-1.06l.7-.05s.2 0 0 0zm-6.28 4V47c-.8.3-.8.6 0 .9.06-.3 0 0 0 0zm-.15-3.14c-.1.3-.2.3-.3 0h.3c-.1.3 0-.1 0 0zm.82 5.2c.1.73.5 1.13 1.24 1.18 0-.5-1.4-1.67-1-2.1-.4.24-.2 1.65-.3.95.1.7-.1-.2 0 0zm7.12-4.52c-.16.3-.32.3-.48 0h.4c-.2.3 0-.13 0 0zm4-12.24c.76-.94-.2-2.3.6-3.13-.4 2.6 1.34-.5 1.6-1.1.72-1.7-1.43.1-1.43-1.4-1.43 1.4-.64-3.1-.44-3.6.82-2.3 3.2-4.4 5.72-4.5-.63.3-1.04.9-1.2 1.6 3.8-3.2 9.1-2 13.8-2 4.8 0 .84 7.5 2.47 10.3.6 1.1-7.6 1-8.2 1-1.6 0 .3-5-.8-5.6-5.8-3.1-4 15-4 17.5-.1 2.9 0 5.9 0 8.8-.1 2.2-7.1 2.2-8.4 1.2-1.5-1.2-.6-4.8-.5-6.3.4-4.4.2-8.8.5-13.1-.4.4.3 1.9-.2 2.4.1-.1.1-2.8.1-2.5.7-.9-.5 5.7-.1 0zm32.5 7.8c0 1.7-1 5.3 1.4 5.55 2.2.2 2.4-.66 2.4-2.6 0-1.88.62-4.4-1.37-5.55-1.43-.8-3.48-.65-4.7-1.84 1.67.3.32-1.15-.9-.73-1.17.42-1.95.04-2.87-.78-.92-.85-1.66-1.8-1.88-3.1-.24-1.35.77-3.26.47-4.28-1.63-5.5 4.14-9.9 9.8-9.8 5.73.1 8.97 4.3 8.47 9.8-.2 1.5-6.1 1.5-6.7.5-.5-.6-.3-7.3-3.4-3.5-5 6 5.7 7.8 8.4 10.4 3.7 3.5 2.8 13.5-1.5 16.2-4.2 2.6-10.8 1.5-14.1-2.1-2-2.2-1.8-5-1.8-7.8 0-1.7 6.7-.8 8.1-.8 0 1.6 0 0 0 0zm2.4-4.25c.5-.1 1-.2 1.5-.28 0-.7-1.7-.5-2.04-.5-.06.7.53.7.55.7.5-.1-.36 0 0 0zm2.85 0c.6.13 1.12 0 1.6-.35 0-.83-2.22-.3-2.5.1-.15.2 1.08.23.9.23.3 0-.6 0 0 0zm21.08 14.5c-.6.13-.78.5-.53 1.1-4.27-1.4-7.17-4.4-7.92-8.9-.45-2.7.07-5.3.07-8 0-2.6-.86-4.7-.3-7.36.17.6.46.6.86.2.73-1.1-1.96-3.3-2.94-3.4-2.3-.3-1.2-4.7-1.36-6.3 2.23 0 3 .8 3-1.9 0-2.1-.05-4.2-.1-6.4-.05-1.5-.43-3.9.28-5.4.2-.4 6.96-.6 7.76-.2 1.22.7.35 8.8.35 10.2 0 4.2.6 4 4.8 4-.67 0 3.14-.2 3.14.2 0 .5.2 2.2-.7 2.2-.6 0-7.2 0-6.8.6.7 1 3.8-.1 4.8 0 1.3.2 4.2 2.8 1.7 3-2.2.2-6.4-.9-6.7 2-.1 1.3 0 2.7.1 4 .2 2.1.8 1.9-1.5 1.9 1.4 3.6 2 6.1 2 10 .1 5.6 4.1 2.7 7.3 4.7 1.1.6.9 4.6.4 5.6-1.1 2.1-6.3-.6-7.3-1.34-.5.1.1 0 0 0zm-8.86-29.7c.48.02 2.97.7 2.6-.6-.27-.9-4.43-.4-4.53.45-3.3-.26 3.8.2 2 .14.4 0-.3 0 0 0zm4.7 11.2c1.17-.3.9-2.9.9-3.77 0-.56-3.76-.86-4 .27.1-.4 3.66 3.75 3.1 3.5 1-.26-.5-.16 0 0zm-.48-11c.52.4 1.33-.14 1.33-.7-.3 0-2 .25-1.4.7.5.4-.1-.04 0 0zm21.92 27.7c0 .1-3.75.6-4.2.5-3.2-.9-2.14-4.8-2.14-7.25 0-7.22 7.8-5.84 12.1-8.64 2.2-1.4.5-10.7-3.15-7.2-1 .9-.3 3.36-.4 4.45 0 .44-6.7.73-7.8.45-1.4-.35-.7-6-.3-7.04.9-2.24 3.9-3.48 6.1-3.9 4.8-.9 11.4-.6 13.7 4.6 2.3 5.35.6 13.3.5 18.92-.1 4.12-5.9 11.1-9.4 6.7-1.7.6-.5 2-3.1 1.62-1.7-.2-3.5-.5-4.8-1.67 1-.3 1.9-.8 2.7-1.5 0 0-1.2 1 0 0 0-.6-1 .9 0 0zm3.02.9c1.66.46 4.83-2.24 1.87-2.2 0-2.67 2.48-1.44 3.77-1.44 0-1.3-1.47-.94-2.23-.94 0-1.3 1-4.1-.3-5-3.3-.6-4.4 2.3-3.8 5.1.4 1.8 3.1 1.2 1 2.7-1 .7-1.3 1.4-.1 1.7 1.9.5-.3-.1 0 0zm28.67-6.24c-.13-8-.2-15.97-.26-23.96v-13c0-3.07.7-2.7 3.5-2.62 4.7.1 5 .5 4.9 5.34-.1 6.1-1 13.5.4 19.6 2.4-1.3 3-5.6 3.6-7.9 1.1-4.1 2.3-3.3 6.4-3.3 4.9 0 3 1.6 1.5 5.7-.7 2.1-.9 5.8-2.9 7.2-.2-1.5-2.7-.3-3.3.2 2.7.5 6.1 3.4 6.8 6.3.5 2.2.2 4.8.2 7.1 0 2.1.8 4.9.5 6.9-.1 1.2-7.5 1.5-8.5.8 0-2.1 1.1-14.7-1.8-14.5-6.3.3 1.6 14.6-3.5 14.7-2.5 0-6.7 1.3-6.7-1.9 0-1.8.1-3.5.2-5.2 0-.4-.2-3.1-.4-1.7-.2-13.1 0 0 0 0zm1.2-22.54c.4.5 1.63.8 1.55-.3 0-.9-1.67 0-1.54.2.4.5-.02-.1 0 0zm0 5.8c1 .2 1.2 1.7 2.42.9-.9-.3.4-1.5-.3-1.8-.4-.2-2.6.3-2.2.8 1 .2 0-.1 0 0zm.28 11.1c.42.2 2.77 1.5 3.05.5-.58-.8-.9-1.6-1-2.5-.33 0-2.35 1.3-2.35 1.6-.08-.1.57.5.3.4.4.2-.2-.2 0 0zm.45-15.2c.34.2 1.43-.4.97-.7-.34-.3-1.43.3-.97.7.38.3-.08-.1 0 0zm23.3 21.2c-.37-11 .13-22 .13-32.9 0-3.7-.55-4.5 3.5-4.2 4.17.3 4.95-.9 4.95 4.1 0 11.6-.24 23.2-.38 34.8 0 .9.55 5.5-.4 6-1.18.6-2.77.2-4.03.2-5.4.3-3.67-5-3.8-9.2l.07 2c0-.4-.02-.7-.04-1-.26-7.6.13 3.4 0 0zm18.54 4.9c0 .1-3.75.6-4.22.5-3.2-.9-2.12-4.8-2.12-7.3 0-7.2 7.8-5.9 12.1-8.7 2.2-1.4.5-10.7-3.15-7.2-.94.9-.3 3.3-.32 4.4-.02.4-6.66.7-7.8.4-1.37-.3-.7-6-.3-7 .94-2.3 3.9-3.5 6.14-3.9 4.8-.9 11.45-.6 13.7 4.6 2.3 5.3.6 13.3.5 18.9-.1 4.1-5.84 11.1-9.4 6.7-1.65.6-.45 2-3.06 1.6-1.6-.2-3.5-.5-4.7-1.7 1.1-.3 2-.8 2.7-1.6 0 0-1.1 1 0 0 0-.7-.9.8 0 0zm3.02.9c1.66.4 4.83-2.3 1.87-2.2 0-2.7 2.48-1.5 3.77-1.5 0-1.3-1.48-1-2.23-1 0-1.3.9-4.1-.4-5-3.34-.6-4.4 2.3-3.87 5.1.36 1.8 3.12 1.2.94 2.7-1 .7-1.34 1.4-.1 1.7 1.86.5-.3-.1.02 0zm27.1.8c-.6.1-.8.5-.54 1.1-4.85-1.6-7.64-5.2-8.1-10.3-.28-3.3-.1-6.5-.3-9.7-.16-2.5.04-3.7 1.24-5.4 0 0-2.14-2.1-3.08-2.3-2.3-.4-1.2-4.7-1.35-6.4 3.3 0 2.98-.2 2.98-3.7 0-1.9 0-3.9-.1-5.8 0-.5-.2-4.5.5-4.5 1.1 0 8-.8 8 .7v11.4c0 3.5 4.4 2.1 6.8 2.1 2.1 0 1.3 2.7-1 2.2-1.3-.3-1.8-.1-3.1.8.8-.2 4.9-.6 4.9.9 0 2.9-3 2-5.3 2.1-3.5.2-2.8 8.8-2.1 11.2.9 2.8-.4 6.2.8 8.9 1.4 2.9 6.3.3 7.1 2.5 2.5 6.2-3.2 6.8-7.1 3.8-.6.1 0 0 0 0zm-8.88-29.7c.48 0 2.98.7 2.6-.6-.28-1-4.56-.3-4.56.2s2.84.4 1.96.3c.34 0-.36-.1 0 0zm32.42 31.3c-3.73.6-8-5-8.8-8.1-.65-2.5-.52-5-.3-7.6.3-3.1-.87-5.9-.2-9 .18.5.46.6.87.1.73-1.1-1.96-3.4-2.95-3.5-2.3-.4-1.2-4.7-1.36-6.4 2.23 0 3 .7 3-1.9 0-2.2-.05-4.3-.1-6.4-.04-1.6-.43-4 .28-5.4.2-.4 6.96-.6 7.77-.2 1.3.6.4 8.7.4 10.1 0 4.2.6 4 4.8 4-.6 0 3.2-.3 3.2.2s.2 2.1-.7 2.1c-.6 0-7.2 0-6.8.5.6 1 3.7-.1 4.7.1 1.3.2 4.2 2.8 1.7 3-2.2.2-6.4-.9-6.7 2-.1 1.3 0 2.6.1 3.9.2 2.1.7 1.9-1.5 1.9 1.6 4 1.5 7.1 2.1 11.3.6 4.8 6.9 1 7.6 4.5.5 2.3 1 4.7-1.8 4.7-.7 0-4.2.5-4.9-.1-.6.1 0 0 0 0zm-4.77-20.1c1.17-.4.9-2.9.9-3.8 0-.6-3.77-.9-4 .2.1-.4 3.66 3.7 3.1 3.5 1-.3-.5-.2 0 0zm-.48-11c.5.4 1.33-.2 1.33-.7-.22 0-1.96.2-1.33.7.5.4-.08-.1 0 0zm15.6 23.5l.28-1.8c.32.6 2.14.1 2.14-.6 0-1-2.16.3-2.14-.7l.15-8.9c.07-4.2-.9-9.4 3.27-11.8 6.56-3.9 17.57-1.2 17.44 7.4-.1 2.5-.1 5-.1 7.5 0 2.2-2.7 1.6-4.2 1.6-3.8 0-8.8-1.6-8.2 3.6.2 1.9-1.2 2.4 0 4.2.8 1.2 3 .7 3.7.9 0 0 3.3-1.5 3.7-1.5 2.1-.2 2.4 1.2 4.6.5.3 10.3-21.7 8.4-20.8-.7 0-.6 0 .2 0 0zm4.5-.7c.5-.3.7-.8.6-1.4-.3-.5-1.2.8-.6 1.3.43-.2 0 0 0 0zm6-18.5c-3.26.3-1.74 9.3 1.84 5.9 1.2-1.2 1.1-3.5.2-4.8-.6-.9-2.6-1-2.1-1.1-2 .2.1 0 0 0zm9.03 17.9c-.64 0-5.6.8-4.46-.9-.93-.1-1.64.3-2.12 1.1-3.05-3.4 4.07-3.5 5.12-3.5 2.24-.2 5.14 1.7 2.73 4.4-.5-1.1-.8-1.2-1.96-1.1l.6-.1s.2 0 0 0zm-5.6 6c.08.7.5 1.1 1.23 1.2 0-.5-1.3-1.7-1-2.1-.3.3-.1 1.7-.2 1 .1.7 0-.3 0 0zm3.28-14.1l-.4 1.8c4.9 0 .6-3.8.4-1.9-.16.6.02-.2 0 0zm7.84-2.6c.76-1-.22-2.3.6-3.1-.32 2.1.84-.4.16-1.8 0-.7-1.28-1.9-.44-4.3 1.28-3.6 5.4-4.9 8.9-4.9h7.68c1.73 0 4.27-.9 4.03 1.6-.23 2.4-.28 5-.07 7.4.14 1.5.7 1.8-1.57 2.2-1 .1-6.2.8-6.7-.2-.7-1.4-.1-3.2-.1-4.7 0-1.3-3.1-.8-3.7-.2-1.1 1.1-.4 4-.5 5.3-.1 3.2-.2 6.5-.2 9.7 0 .8.5 11.9-.4 12.1-3.9 1-8.9 1.5-8.8-3.4.2-5.3.4-10.7.8-16-.3.4.3 1.9-.1 2.44 0-.1.1-2.75.1-2.4.7-.98-.4 5.64 0 0zm24.8 11c-.14-8-.22-16-.27-24-.03-4.4-.04-8.7-.04-13.1-.1-3.1.6-2.7 3.4-2.6 4.6.1 5 .5 4.9 5.4-.2 6.2-1 13.5.4 19.6 2.3-1.3 2.9-5.6 3.5-7.9 1-4.1 2.2-3.2 6.3-3.2 4.9 0 2.9 1.6 1.4 5.7-.8 2.1-1 5.8-3 7.2-.3-1.5-2.8-.4-3.4.2 2.6.5 6.1 3.3 6.8 6.3.5 2.2.1 4.8.1 7.1 0 2.1.7 4.8.4 6.9-.2 1.2-7.5 1.5-8.5.8 0-2.1 1.1-14.7-1.8-14.5-6.3.3 1.5 14.6-3.6 14.7-2.6 0-6.7 1.3-6.7-1.8 0-1.8 0-3.5.1-5.2 0-.4-.3-3.1-.5-1.7-.2-13.1 0 0 0 0zm1.2-22.6c.4.5 1.62.8 1.54-.3 0-.9-1.68 0-1.54.2.4.5-.02-.1 0 0zm0 5.8c.98.2 1.2 1.7 2.4.9-.9-.3.46-1.5-.2-1.8-.34-.2-2.54.3-2.2.8 1.03.3-.02 0 0 0zm.27 11.1c.42.2 2.76 1.5 3.05.5-.58-.7-.9-1.6-1-2.5-.33 0-2.35 1.3-2.35 1.6-.08-.1.56.5.3.4.4.2-.2-.2 0 0zm.45-15.2c.34.2 1.43-.4.97-.7-.4-.3-1.5.3-1 .7.4.2-.1-.1 0 0zm23.3 21.2c-.37-11 .12-22 .12-32.9 0-3.7-.54-4.5 3.52-4.2 4.16.3 4.93-.9 4.93 4.1 0 11.6-.3 23.2-.4 34.8 0 .9.5 5.5-.4 6-1.2.6-2.8.2-4.1.2-5.4.3-3.7-5-3.8-9.2v2l-.1-1c-.3-7.6.1 3.4 0 0zm19.74-26.9c1.9.7.76 6.9.7 8.4-.2 4.5.36 9 .06 13.6-.12 1.7-.77 6.5 1.88 6.9 3.98.6 1.48-5.6 3.4-7.2-1.4.6-1.25-6.2-1.23-6.9.05-2.4-1.45-13.3.2-14.6 1.3-1.1 4.56-.3 6.05-.2 2.3.2 2.22-.1 2.22 2.3 0 2.8-.14 5.6.05 8.4 0 .7-2 1.5-1.7 1.9.2.3 2.5.8 1.1 1.8.4-.3.8 5.2.8 5.5v12.9c0 3-1.5 2-4.1 2-2.4 0-4.8.1-7.1-.1-10.2-.7-9.9-7.9-9.9-16.2V22.7c0-.62-.6-5 .4-5.05 2.3-.12 4.7.02 7.1.02 1.5.62 0 0 0 0zm-3.2 19.1c.4 1 3 1.4 3-.1m17.94-1.2l.98-.7c-2.75.8-1.85-10.6-1.84-11.9l.02-17.9c0-.6 5.96-.2 6.8-.2 3.36-.3 1.8 11.5 1.8 13.9 0-1 8.6 1.6 9.25 2 2.2 1.4 3.2 3.5 3.1 6.1 0 1.4.6 2.8.6 4.1 0 .8-1.3.7-1.2 1.3 2.6.5 1.7 10.9 1.5 12.8-.7 6.5-7 7.4-12.4 7.4-1.8 0-3.7.2-5.6.3-3.6.3-3.1-.8-3.1-4.2 0-2.5-1.5-11.8.3-13.2.4-.2-.3.3 0 0zm3.8-6.1c-.58 0-1.86.1-1.86 1 1.12 0 3.2.2 3.86-1 1.68 0-3.98.1-2 0-.57 0 .3 0 0 0zm4.7 21.6c1.1.9 2-4.3 2.74-4.9.97-.8 1.13-1.8 1.2-3 .1-2.5 1.1-3 2.12-5.1-1.3.6-3.75-.4-1.8-1.8-1.06-.5-1.12-3.4-.08-3.6 2.48-.4 1.58-.4 1.58-2 0-1.2 3.54-1.1 4.22-1.8-1.54-1-2-.37-3.62 0 .66-3-1.86.4-2.53.23-1.15-.2-.26-3.23-1.18-4-.83-.6-2.3-.43-2.95.4-1.2 1.5.48 1.6.18 2.3-.23.6-1.5 2.8-1.54 2.8.63.63 1.48 1.2-.43 1.7.8.4 2.5.83 1.3 1.55 0 .46 1.1.2.9 1-.4 1.4-1 2.7-.4 4.1.9 1.8.2 4.92-.4 6.75.4.94 1.7.77 2.1 1.8.5 1.4-1.2 2.15-1.1 3.5.1.1 0 0 0 0zm-3.6.5c.4.6 1.2-.6 1.2-.9.04-.6-1.17.6-1.2.9.37.6 0 0 0 0zm9.22-16l-.53 1.4c2.5 0 2-3.6 2.7-5.5-1.2.6-2.1 3.8-2.3 4-.3.4.3-.6 0 0zm10.98-.1l.96-.7c-2.75.8-1.84-10.58-1.84-11.9l.03-17.96c0-.5 5.95-.1 6.8-.2 3.35-.2 1.8 11.5 1.8 14 0-.3 5.5.6 6 .7 3.7.8 6.4 3.7 6.27 7.5-.18 6.3 3.32 15.9-.27 21.6-3.5 5.6-12.25 4.4-17.94 4.5-3.7.1-2.1-6.9-2.2-9.73 0-1.7-.8-6.7.4-7.6.4-.2-.3.3 0 0zm2.16-.7c-.02 0 1.74.2 1.82-.26-.26-1-1.92.4-1.8.2-.04 0 .15-.3-.02 0zm.94-1.7c0 .26 1.9-.3 2.08-.58-.4 0-2.97-.38-2.08.52 0 .22 0-.18 0 0zm6.7 15.56c.6-.9.83-1.63 1.4-2.5 1-1.9.74-3.6 1.4-5.7.74-2.4-.47-4.8-.47-7.55 0 .85 1.72-.04 1.82-.93-2.9 1.4-1.3-2.4-1-3.7.6-2.57-4.17-4.75-5.5-1.5-.43 1.03.8 3.65.2 4.1 0 3.3.46 1.95-1.58 4.4 1.75-.57 2.1 7.6 1.93 8.63-.27 1.74.26 3.7 1.8 4.8.5-.8 0 0 0 0zm-3.3.1c.73.6 1.1-1.1 1.1-1.4-.36 0-1.72 1-1.1 1.4.73.5-.07-.1 0 0zM252.8 15c-.8 1.9-2.4 3.2-4.12 2.5-1.7-.7-2.44-2.8-1.64-4.7.8-1.8 2.84-2.8 4.55-2 1.7.73 2 2.5 1.2 4.36zm9.44.1c-.2 1.98-2.46 2.9-4.02 2.3-1.57-.5-2.3-2.5-1.65-4.3.66-1.8 2.46-2.82 4.03-2.3 1.56.6 1.84 2.47 1.64 4.38z"/></svg>